<svg width="71" height="71" viewBox="0 0 71 71" fill="none" xmlns="http://www.w3.org/2000/svg">
<rect width="71" height="71" fill="white"/>
<path d="M61.916 40.2116C62.068 40.3636 62.2742 40.449 62.4892 40.449C62.7042 40.449 62.9105 40.3636 63.0625 40.2116C63.2145 40.0595 63.2999 39.8533 63.2999 39.6383V37.379C63.2999 37.164 63.2145 36.9578 63.0625 36.8057C62.9105 36.6537 62.7042 36.5683 62.4892 36.5683C62.2742 36.5683 62.068 36.6537 61.916 36.8057C61.7639 36.9578 61.6785 37.164 61.6785 37.379V39.6383C61.6785 39.8533 61.7639 40.0595 61.916 40.2116Z" fill="#CB8734" stroke="#CB8734" stroke-width="0.1"/>
<path d="M13.0429 62.175H60.2071C61.0274 62.175 61.8141 61.8491 62.3941 61.2691C62.9741 60.6891 63.3 59.9024 63.3 59.0821V44.9633C63.3 44.7483 63.2146 44.5421 63.0625 44.39C62.9105 44.238 62.7043 44.1526 62.4893 44.1526C62.2743 44.1526 62.0681 44.238 61.916 44.39C61.764 44.5421 61.6786 44.7483 61.6786 44.9633V59.0821C61.6786 59.4724 61.5235 59.8467 61.2476 60.1226C60.9717 60.3985 60.5974 60.5536 60.2071 60.5536H13.0429C12.6526 60.5536 12.2783 60.3985 12.0024 60.1226C11.7265 59.8467 11.5714 59.4724 11.5714 59.0821V11.9179C11.5714 11.5276 11.7265 11.1533 12.0024 10.8774C12.2783 10.6015 12.6526 10.4464 13.0429 10.4464H60.2071C60.5974 10.4464 60.9717 10.6015 61.2476 10.8774C61.5235 11.1533 61.6786 11.5276 61.6786 11.9179V24.5153C61.6786 24.7303 61.764 24.9365 61.916 25.0885C62.0681 25.2406 62.2743 25.326 62.4893 25.326C62.7043 25.326 62.9105 25.2406 63.0625 25.0885C63.2146 24.9365 63.3 24.7303 63.3 24.5153V11.9179C63.3 11.0976 62.9741 10.3109 62.3941 9.73088C61.8141 9.15085 61.0274 8.825 60.2071 8.825H13.0429C12.2226 8.825 11.4359 9.15085 10.8559 9.73088C10.2759 10.3109 9.95 11.0976 9.95 11.9179V59.0821C9.95 59.9024 10.2759 60.6891 10.8559 61.2691C11.4359 61.8491 12.2226 62.175 13.0429 62.175Z" fill="#CB8734" stroke="#CB8734" stroke-width="0.1"/>
<path d="M61.916 32.6274C62.068 32.7794 62.2742 32.8648 62.4892 32.8648C62.7042 32.8648 62.9105 32.7794 63.0625 32.6274C63.2145 32.4753 63.2999 32.2691 63.2999 32.0541V29.8404C63.2999 29.6254 63.2145 29.4192 63.0625 29.2672C62.9105 29.1151 62.7042 29.0297 62.4892 29.0297C62.2742 29.0297 62.068 29.1151 61.916 29.2672C61.7639 29.4192 61.6785 29.6254 61.6785 29.8404V32.0541C61.6785 32.2691 61.7639 32.4753 61.916 32.6274Z" fill="#CB8734" stroke="#CB8734" stroke-width="0.1"/>
<mask id="path-5-outside-1_162_1777" maskUnits="userSpaceOnUse" x="37.4295" y="23.5222" width="24.0416" height="24.0416" fill="black">
<rect fill="white" x="37.4295" y="23.5222" width="24.0416" height="24.0416"/>
<path fill-rule="evenodd" clip-rule="evenodd" d="M54.3693 31.8192C54.5711 31.8192 54.7645 31.739 54.9072 31.5964C55.0499 31.4537 55.13 31.2602 55.13 31.0585C55.13 30.8567 55.0499 30.6632 54.9072 30.5206L49.9246 25.5379C49.7819 25.3953 49.5884 25.3151 49.3867 25.3151C49.1849 25.3151 48.9914 25.3953 48.8488 25.5379L43.8661 30.5206C43.7235 30.6632 43.6433 30.8567 43.6433 31.0585C43.6433 31.2602 43.7235 31.4537 43.8661 31.5964C44.0088 31.739 44.2023 31.8192 44.4041 31.8192C44.6058 31.8192 44.7993 31.739 44.942 31.5964L48.6263 27.9121L48.6263 45.0105C48.6263 45.161 48.6709 45.308 48.7545 45.4331C48.8381 45.5582 48.9569 45.6556 49.0959 45.7132C49.2349 45.7708 49.3878 45.7859 49.5353 45.7565C49.6829 45.7272 49.8184 45.6548 49.9248 45.5484C50.0674 45.4058 50.1475 45.2123 50.1475 45.0105L50.1475 27.9125L53.8314 31.5964C53.9741 31.739 54.1675 31.8192 54.3693 31.8192Z"/>
</mask>
<path fill-rule="evenodd" clip-rule="evenodd" d="M54.3693 31.8192C54.5711 31.8192 54.7645 31.739 54.9072 31.5964C55.0499 31.4537 55.13 31.2602 55.13 31.0585C55.13 30.8567 55.0499 30.6632 54.9072 30.5206L49.9246 25.5379C49.7819 25.3953 49.5884 25.3151 49.3867 25.3151C49.1849 25.3151 48.9914 25.3953 48.8488 25.5379L43.8661 30.5206C43.7235 30.6632 43.6433 30.8567 43.6433 31.0585C43.6433 31.2602 43.7235 31.4537 43.8661 31.5964C44.0088 31.739 44.2023 31.8192 44.4041 31.8192C44.6058 31.8192 44.7993 31.739 44.942 31.5964L48.6263 27.9121L48.6263 45.0105C48.6263 45.161 48.6709 45.308 48.7545 45.4331C48.8381 45.5582 48.9569 45.6556 49.0959 45.7132C49.2349 45.7708 49.3878 45.7859 49.5353 45.7565C49.6829 45.7272 49.8184 45.6548 49.9248 45.5484C50.0674 45.4058 50.1475 45.2123 50.1475 45.0105L50.1475 27.9125L53.8314 31.5964C53.9741 31.739 54.1675 31.8192 54.3693 31.8192Z" fill="#CB8734"/>
<path d="M49.3867 25.3151L49.3867 25.2151L49.3867 25.2151L49.3867 25.3151ZM43.6433 31.0585L43.5433 31.0585L43.6433 31.0585ZM44.4041 31.8192V31.7192V31.8192ZM44.942 31.5964L45.0127 31.6671L44.942 31.5964ZM48.6263 27.9121L48.7263 27.912L48.7263 27.6706L48.5556 27.8413L48.6263 27.9121ZM48.6263 45.0105L48.5263 45.0105L48.5263 45.0105L48.6263 45.0105ZM48.7545 45.4331L48.6714 45.4886L48.6714 45.4886L48.7545 45.4331ZM49.0959 45.7132L49.0576 45.8056L49.0576 45.8056L49.0959 45.7132ZM49.5353 45.7565L49.5548 45.8546L49.5353 45.7565ZM49.9248 45.5484L49.9955 45.6192L49.9955 45.6191L49.9248 45.5484ZM50.1475 45.0105L50.0475 45.0105L50.0475 45.0105L50.1475 45.0105ZM50.1475 27.9125L50.2182 27.8418L50.0475 27.6711L50.0475 27.9125L50.1475 27.9125ZM54.8365 31.5257C54.7126 31.6496 54.5445 31.7192 54.3693 31.7192V31.9192C54.5976 31.9192 54.8165 31.8285 54.9779 31.6671L54.8365 31.5257ZM55.03 31.0585C55.03 31.2337 54.9604 31.4018 54.8365 31.5257L54.9779 31.6671C55.1393 31.5057 55.23 31.2868 55.23 31.0585H55.03ZM54.8365 30.5913C54.9604 30.7152 55.03 30.8832 55.03 31.0585H55.23C55.23 30.8302 55.1393 30.6113 54.9779 30.4499L54.8365 30.5913ZM49.8539 25.6087L54.8365 30.5913L54.9779 30.4499L49.9953 25.4672L49.8539 25.6087ZM49.3867 25.4151C49.5619 25.4151 49.73 25.4847 49.8539 25.6087L49.9953 25.4672C49.8339 25.3058 49.615 25.2151 49.3867 25.2151L49.3867 25.4151ZM48.9195 25.6087C49.0434 25.4847 49.2114 25.4151 49.3867 25.4151L49.3867 25.2151C49.1584 25.2151 48.9395 25.3058 48.7781 25.4672L48.9195 25.6087ZM43.9369 30.5913L48.9195 25.6087L48.7781 25.4672L43.7954 30.4499L43.9369 30.5913ZM43.7433 31.0585C43.7433 30.8832 43.813 30.7152 43.9369 30.5913L43.7954 30.4499C43.634 30.6113 43.5433 30.8302 43.5433 31.0585L43.7433 31.0585ZM43.9369 31.5257C43.813 31.4018 43.7433 31.2337 43.7433 31.0585L43.5433 31.0585C43.5433 31.2868 43.634 31.5057 43.7954 31.6671L43.9369 31.5257ZM44.4041 31.7192C44.2288 31.7192 44.0608 31.6496 43.9369 31.5257L43.7954 31.6671C43.9569 31.8285 44.1758 31.9192 44.4041 31.9192V31.7192ZM44.8712 31.5257C44.7473 31.6496 44.5793 31.7192 44.4041 31.7192V31.9192C44.6323 31.9192 44.8513 31.8285 45.0127 31.6671L44.8712 31.5257ZM48.5556 27.8413L44.8712 31.5257L45.0127 31.6671L48.697 27.9828L48.5556 27.8413ZM48.7263 45.0105L48.7263 27.912L48.5263 27.9121L48.5263 45.0105L48.7263 45.0105ZM48.8377 45.3775C48.7651 45.2689 48.7263 45.1412 48.7263 45.0105L48.5263 45.0105C48.5263 45.1808 48.5768 45.3471 48.6714 45.4886L48.8377 45.3775ZM49.1341 45.6208C49.0134 45.5708 48.9103 45.4862 48.8377 45.3775L48.6714 45.4886C48.7659 45.6302 48.9004 45.7405 49.0576 45.8056L49.1341 45.6208ZM49.5158 45.6584C49.3877 45.6839 49.2549 45.6708 49.1341 45.6208L49.0576 45.8056C49.2148 45.8707 49.3879 45.8878 49.5548 45.8546L49.5158 45.6584ZM49.8541 45.4777C49.7617 45.5701 49.644 45.633 49.5158 45.6584L49.5548 45.8546C49.7218 45.8214 49.8751 45.7395 49.9955 45.6192L49.8541 45.4777ZM50.0475 45.0105C50.0475 45.1858 49.9779 45.3538 49.8541 45.4777L49.9955 45.6191C50.1569 45.4577 50.2475 45.2388 50.2475 45.0105L50.0475 45.0105ZM50.0475 27.9125L50.0475 45.0105L50.2475 45.0105L50.2475 27.9125L50.0475 27.9125ZM53.9021 31.5257L50.2182 27.8418L50.0768 27.9832L53.7607 31.6671L53.9021 31.5257ZM54.3693 31.7192C54.1941 31.7192 54.026 31.6496 53.9021 31.5257L53.7607 31.6671C53.9221 31.8285 54.141 31.9192 54.3693 31.9192V31.7192Z" fill="#CB8734" mask="url(#path-5-outside-1_162_1777)"/>
</svg>
