<svg width="29" height="32" viewBox="0 0 29 32" fill="none" xmlns="http://www.w3.org/2000/svg">
<rect width="29" height="32" fill="#E5E5E5"/>
<g clip-path="url(#clip0_0_1)">
<rect x="-856" y="-1789" width="1920" height="3503" fill="white"/>
<rect x="-481" y="-18" width="1170" height="66" rx="8" fill="#FFFBF7"/>
<g opacity="0.7">
<path d="M5.90519 6.28976C10.588 2.05389 17.5959 1.98912 22.3435 5.85581L18.5804 5.9983C18.0947 6.01773 17.719 6.4193 17.7384 6.90507C17.7579 7.37788 18.1465 7.74706 18.6128 7.74706C18.6258 7.74706 18.6322 7.74706 18.6452 7.74706L24.4226 7.53332C24.8954 7.51389 25.2646 7.13176 25.2646 6.65894V6.59418C25.2646 6.58122 25.2646 6.57474 25.2646 6.56179V6.55531L25.0508 0.842714C25.0314 0.356949 24.6234 -0.0187096 24.1441 0.000720998C23.6583 0.0201516 23.2826 0.421718 23.3021 0.907483L23.4381 4.48919C21.087 2.56556 18.1918 1.45154 15.0959 1.2961C11.2616 1.10179 7.57622 2.41659 4.73288 4.99439C0.820848 8.53724 -0.837231 13.926 0.406329 19.0557C0.503482 19.4572 0.85971 19.7228 1.2548 19.7228C1.32604 19.7228 1.39081 19.7163 1.46206 19.6969C1.92839 19.5803 2.21985 19.1075 2.10327 18.6412C1.01515 14.1333 2.46597 9.39866 5.90519 6.28976Z" fill="#2B2A28"/>
<path d="M28.5938 12.6631C28.4772 12.1968 28.0044 11.9053 27.5381 12.0219C27.0717 12.1385 26.7803 12.6113 26.8968 13.0777C27.9914 17.5856 26.5341 22.3201 23.0949 25.429C20.679 27.6118 17.6479 28.6869 14.6296 28.6869C11.7474 28.6869 8.87171 27.7089 6.55299 25.7788L10.3614 25.4355C10.8407 25.3902 11.1969 24.9692 11.1516 24.4834C11.1062 23.9977 10.6852 23.6479 10.1995 23.6932L4.44153 24.2114C3.96224 24.2567 3.60601 24.6777 3.65135 25.1635L4.1695 30.9214C4.20836 31.3748 4.5905 31.7181 5.0374 31.7181C5.06331 31.7181 5.08922 31.7181 5.11512 31.7116C5.59441 31.6663 5.95064 31.2453 5.9053 30.7595L5.59441 27.2555C7.94552 29.1597 10.8277 30.2673 13.9042 30.4227C14.1504 30.4357 14.3965 30.4421 14.6361 30.4421C18.2049 30.4421 21.5988 29.1338 24.2672 26.7244C28.1793 23.1816 29.8373 17.7993 28.5938 12.6631Z" fill="#2B2A28"/>
</g>
</g>
<defs>
<clipPath id="clip0_0_1">
<rect width="1920" height="3503" fill="white" transform="translate(-856 -1789)"/>
</clipPath>
</defs>
</svg>
