<svg width="32" height="32" viewBox="0 0 32 32" fill="none" xmlns="http://www.w3.org/2000/svg">
<rect width="32" height="32" fill="white"/>
<path d="M27.3795 18.143C27.4532 18.2166 27.5531 18.258 27.6573 18.258C27.7615 18.258 27.8614 18.2166 27.9351 18.143C28.0088 18.0693 28.0502 17.9694 28.0502 17.8652V16.8469C28.0502 16.7427 28.0088 16.6428 27.9351 16.5691C27.8614 16.4954 27.7615 16.454 27.6573 16.454C27.5531 16.454 27.4532 16.4954 27.3795 16.5691C27.3058 16.6428 27.2645 16.7427 27.2645 16.8469V17.8652C27.2645 17.9694 27.3058 18.0693 27.3795 18.143Z" fill="#2B2A28" stroke="#2B2A28" stroke-width="0.1"/>
<path d="M5.37143 28.05H26.6286C27.0056 28.05 27.3671 27.9002 27.6337 27.6337C27.9002 27.3671 28.05 27.0056 28.05 26.6286V20.2651C28.05 20.161 28.0086 20.061 27.9349 19.9874C27.8613 19.9137 27.7613 19.8723 27.6571 19.8723C27.5529 19.8723 27.453 19.9137 27.3794 19.9874C27.3057 20.061 27.2643 20.161 27.2643 20.2651V26.6286C27.2643 26.7972 27.1973 26.9589 27.0781 27.0781C26.9589 27.1973 26.7972 27.2643 26.6286 27.2643H5.37143C5.20283 27.2643 5.04113 27.1973 4.92191 27.0781C4.80269 26.9589 4.73571 26.7972 4.73571 26.6286V5.37143C4.73571 5.20283 4.80269 5.04113 4.92191 4.92191C5.04113 4.80269 5.20283 4.73571 5.37143 4.73571H26.6286C26.7972 4.73571 26.9589 4.80269 27.0781 4.92191C27.1973 5.04113 27.2643 5.20283 27.2643 5.37143V11.0491C27.2643 11.1533 27.3057 11.2533 27.3794 11.3269C27.453 11.4006 27.553 11.442 27.6571 11.442C27.7613 11.442 27.8613 11.4006 27.9349 11.3269C28.0086 11.2533 28.05 11.1533 28.05 11.0491V5.37143C28.05 4.99444 27.9002 4.6329 27.6337 4.36633C27.3671 4.09976 27.0056 3.95 26.6286 3.95H5.37143C4.99444 3.95 4.6329 4.09976 4.36633 4.36633C4.09976 4.6329 3.95 4.99444 3.95 5.37143V26.6286C3.95 27.0056 4.09976 27.3671 4.36633 27.6337C4.6329 27.9002 4.99444 28.05 5.37143 28.05Z" fill="#2B2A28" stroke="#2B2A28" stroke-width="0.1"/>
<path d="M27.3795 14.7247C27.4532 14.7984 27.5531 14.8398 27.6573 14.8398C27.7615 14.8398 27.8614 14.7984 27.9351 14.7247C28.0088 14.651 28.0502 14.5511 28.0502 14.4469V13.4492C28.0502 13.345 28.0088 13.2451 27.9351 13.1714C27.8614 13.0977 27.7615 13.0563 27.6573 13.0563C27.5531 13.0563 27.4532 13.0977 27.3795 13.1714C27.3058 13.2451 27.2645 13.345 27.2645 13.4492V14.4469C27.2645 14.5511 27.3058 14.651 27.3795 14.7247Z" fill="#2B2A28" stroke="#2B2A28" stroke-width="0.1"/>
<path d="M17.231 14.2137L17.231 14.2137C17.1761 14.2687 17.1387 14.3386 17.1236 14.4148C17.1084 14.491 17.1162 14.57 17.1459 14.6418C17.1756 14.7136 17.226 14.7749 17.2906 14.8181C17.3552 14.8612 17.4311 14.8843 17.5088 14.8843H17.5088C17.613 14.8843 17.7129 14.8429 17.7866 14.7692C17.7866 14.7692 17.7866 14.7692 17.7866 14.7692L23.8208 8.73493L23.8208 8.73493L23.8214 8.73431C23.893 8.66022 23.9326 8.56098 23.9317 8.45797C23.9308 8.35497 23.8895 8.25643 23.8167 8.1836C23.7438 8.11076 23.6453 8.06944 23.5423 8.06855C23.4393 8.06765 23.34 8.10725 23.2659 8.17881L23.2659 8.1788L23.2653 8.17942L17.231 14.2137Z" fill="#2B2A28" stroke="#2B2A28" stroke-width="0.1"/>
<path d="M23.2654 11.9108C23.339 11.9845 23.439 12.0259 23.5432 12.0259C23.6473 12.0259 23.7473 11.9845 23.8209 11.9108C23.8946 11.8371 23.936 11.7372 23.936 11.633V8.45711C23.936 8.35292 23.8946 8.253 23.8209 8.17932C23.7473 8.10565 23.6473 8.06426 23.5432 8.06426H20.3673C20.2631 8.06426 20.1632 8.10565 20.0895 8.17932C20.0158 8.253 19.9744 8.35292 19.9744 8.45711C19.9744 8.56131 20.0158 8.66123 20.0895 8.73491C20.1632 8.80858 20.2631 8.84997 20.3673 8.84997H23.1503V11.633C23.1503 11.7372 23.1917 11.8371 23.2654 11.9108Z" fill="#2B2A28" stroke="#2B2A28" stroke-width="0.1"/>
<path d="M8.17929 23.2651L8.17928 23.2651C8.12436 23.32 8.08695 23.39 8.0718 23.4662C8.05665 23.5424 8.06443 23.6214 8.09416 23.6932C8.12389 23.765 8.17423 23.8263 8.23882 23.8695C8.30341 23.9126 8.37934 23.9357 8.45703 23.9357H8.45705C8.56123 23.9357 8.66114 23.8943 8.7348 23.8206C8.7348 23.8206 8.7348 23.8206 8.7348 23.8206L14.7691 17.7863L14.7691 17.7863L14.7697 17.7857C14.8413 17.7116 14.8809 17.6124 14.88 17.5094C14.8791 17.4064 14.8377 17.3078 14.7649 17.235C14.6921 17.1621 14.5935 17.1208 14.4905 17.1199C14.3875 17.119 14.2883 17.1586 14.2142 17.2302L14.2142 17.2302L14.2136 17.2308L8.17929 23.2651Z" fill="#2B2A28" stroke="#2B2A28" stroke-width="0.1"/>
<path d="M8.45711 23.9357H11.633C11.7372 23.9357 11.8371 23.8943 11.9108 23.8206C11.9845 23.747 12.0259 23.647 12.0259 23.5429C12.0259 23.4387 11.9845 23.3387 11.9108 23.2651C11.8371 23.1914 11.7372 23.15 11.633 23.15H8.84997V20.367C8.84997 20.3154 8.83981 20.2643 8.82007 20.2166C8.80032 20.169 8.77139 20.1257 8.73491 20.0892C8.69843 20.0527 8.65512 20.0238 8.60745 20.004C8.55979 19.9843 8.50871 19.9741 8.45711 19.9741C8.40552 19.9741 8.35444 19.9843 8.30677 20.004C8.25911 20.0238 8.2158 20.0527 8.17932 20.0892C8.14284 20.1257 8.11391 20.169 8.09416 20.2166C8.07442 20.2643 8.06426 20.3154 8.06426 20.367V23.5429C8.06426 23.647 8.10565 23.747 8.17932 23.8206C8.253 23.8943 8.35292 23.9357 8.45711 23.9357Z" fill="#2B2A28" stroke="#2B2A28" stroke-width="0.1"/>
</svg>
